<svg xmlns="http://www.w3.org/2000/svg" viewBox="0 0 250.36 160.12"><defs><style>.a{fill:#fefefe;}.b{fill:#fe7957;}.c{fill:#fe7a57;}.d{fill:#fe7d5b;}.e{fill:#fefbfa;}.f{fill:#fef9f7;}.g{fill:#fef3f0;}.h{fill:#fef8f7;}.i{fill:#fef5f3;}.j{fill:#fefcfc;}.k{fill:#fefcfb;}.l{fill:#fee4dd;}.m{fill:#fefefd;}</style></defs><title>logo</title><path class="a" d="M127.08,161.68q-62,0-124.08,0c-.9,0-1.1-.2-1.1-1.1q0-79,0-157.92c0-.9.2-1.1,1.1-1.1q124.08,0,248.16,0c.9,0,1.1.2,1.1,1.1q0,79,0,157.92c0,.9-.2,1.1-1.1,1.1Q189.12,161.67,127.08,161.68Z" transform="translate(-1.9 -1.58)"/><path class="b" d="M101,75.8c.07.59.52.78.82,1.07,2.17,2.12,4.37,4.21,6.53,6.34,1.64,1.62,1.62,2.28,0,3.87-.79.79-1.57,1.59-2.42,2.33-.54.47-.56.78,0,1.33,3,3.27,6,6.58,8.93,9.87q11.43,12.61,22.86,25.24A8.44,8.44,0,0,1,125.92,138q-12.35-11.11-24.66-22.26-5.39-4.86-10.74-9.76c-.52-.47-.85-.64-1.38,0a33.6,33.6,0,0,1-2.35,2.57c-1.47,1.52-2.08,1.54-3.57.06Q77.36,102.82,71.51,97c-.68-.68-1.37-1.35-2-2-1.12-1.15-1.12-1.9,0-3.08a36.25,36.25,0,0,1,2.63-2.63c.69-.59.5-.9,0-1.49a7.25,7.25,0,0,0-5.16-2.57c-7.37-.68-12.36-4.73-14.8-11.77a13.7,13.7,0,0,1-.74-4.71c0-1-.24-1.36-1.34-1.35-5.48.06-10.95,0-16.43,0a2.52,2.52,0,0,0-2.23,1.1q-6.89,8.91-13.81,17.8c-1.23,1.59-1.89,1.91-2.91,1.4s-1.22-1.38-.77-3.27c1.37-5.71,2.69-11.42,4-17.13a1.66,1.66,0,0,0-.63-1.9c-2.85-2.13-3.81-5.08-3.8-8.51,0-7.91,0-15.83,0-23.75,0-4.24,1.71-7.5,5.66-9.35a9.12,9.12,0,0,1,4-.83c12.32,0,24.64,0,37,0,6.15,0,10,3.95,10,10.14,0,5.72,0,11.43,0,17.15,0,1.16.36,1.74,1.54,1.75a3.38,3.38,0,0,1,.71.1c1.86.38,1.86.38,1.86-1.49,0-1.6,0-3.2,0-4.8a8.05,8.05,0,0,1,8-7.93q15.78-.06,31.56,0a8.13,8.13,0,0,1,8.42,8.51c0,7,0,13.92,0,20.88a8.11,8.11,0,0,1-2.91,6.45,1.8,1.8,0,0,0-.67,2.07c1.18,4.8,2.28,9.63,3.43,14.44a2,2,0,0,1-.88,2.48c-1,.54-1.84,0-2.48-.82-3.54-4.53-7.3-8.92-10.55-13.65C106.11,75.31,103.67,75.62,101,75.8Z" transform="translate(-1.9 -1.58)"/><path class="c" d="M12.25,140.56c.63-3.2,1.28-6.21,1.78-9.23A7.27,7.27,0,0,1,17,126.69a22.77,22.77,0,0,1,8.43-3.89c2.27-.6,4.58-1,6.88-1.57.41-.1.95-.08.83-.75s.38-1.39-.52-1.78a16.51,16.51,0,0,1-5.88-4.24.88.88,0,0,0-1-.23,12.87,12.87,0,0,1-4.29-.06c-.31,0-.74-.12-.88-.33-.85-1.29-2.31-1.44-3.56-2-4.28-1.76-4.31-8.06-1.22-10a1.76,1.76,0,0,0,.8-1.71c0-2.76.36-3.23,3-4.18.4-.15.43-.29.42-.66a9.4,9.4,0,0,1,.73-3.62c.45-1.08,1.18-2,1.19-3.31,0-.52.54-.86.91-1.22A22.15,22.15,0,0,1,36.6,80.92c6.6-.71,12.82.41,18.31,4.41,1.07.78,2.37,1.59,2.75,2.78.71,2.21,2.1,4.23,2.12,6.65a1.24,1.24,0,0,0,1.09,1.4c1.7.47,2.44,1.64,2.26,3.57a2.08,2.08,0,0,0,.94,2.19c2.1,1.51,2.22,3.75,1.78,6.06-.47,2.5-2.21,3.79-4.51,4.44-.59.17-1.18.16-1.17,1,0,.36-.45.4-.75.47a12,12,0,0,1-5.1.29,1.66,1.66,0,0,0-1.78.61,13.23,13.23,0,0,1-5,3.62c-1.11.44-.89,1.24-.91,2s.79.67,1.22.75a44.78,44.78,0,0,1,13,4.13A9.23,9.23,0,0,1,66.06,133a69.22,69.22,0,0,0,1.25,6.82c.13.61,0,.81-.6.75H12.25Z" transform="translate(-1.9 -1.58)"/><path class="c" d="M140.22,86.62c3.43,2.07,4.46,4.73,3.05,8-1.18,2.73-3.64,3.48-6.28,3.62-3.07.15-6.16,0-9.24.06-.91,0-1.28-.44-1.27-1.33q0-9.84,0-19.68c0-.72.2-1.32,1-1.3,3.52.07,7-.34,10.54.24a5.65,5.65,0,0,1,4.76,7.32A5.58,5.58,0,0,1,140.22,86.62Z" transform="translate(-1.9 -1.58)"/><path class="c" d="M207.13,82.81c0-2.64,0-5.07,0-7.49,0-1.54.18-1.73,1.73-1.72,2.88,0,3-.5,3,3,0,6.6,0,13.19,0,19.78,0,.66.2,1.55-.58,1.8a4.12,4.12,0,0,1-3.14-.08c-.72-.37-.32-1.31-.6-2a6.87,6.87,0,0,1-6.91,2.38,7.6,7.6,0,0,1-6.16-6.67,10.61,10.61,0,0,1,1.17-7.31,7.31,7.31,0,0,1,10.88-2.05Z" transform="translate(-1.9 -1.58)"/><path class="c" d="M184.55,96.06c-3.36,3.06-7.18,3.33-10.31.8a7.79,7.79,0,0,1-2.39-3.53c-1.4-3.83-.34-8.63,2.38-10.83a7.28,7.28,0,0,1,9.27-.1c.12.09.26.17.59.39v-4.5c0-1,0-2.08,0-3.12,0-.31,0-.72.11-.93,1-1.29,2.45-.48,3.68-.59.83-.07.93.74.93,1.4,0,2.12,0,4.24,0,6.36,0,5,0,10,0,15,0,1.77-.16,1.93-1.89,1.94C184.76,98.33,184.76,98.33,184.55,96.06Z" transform="translate(-1.9 -1.58)"/><path class="c" d="M226.34,93l4.38-10.71c.6-1.47,1-1.69,2.58-1.3a9.42,9.42,0,0,1,1.36.45,1.41,1.41,0,0,1,.84,2.12q-4.89,10.74-9.77,21.48a1.53,1.53,0,0,1-1.82,1l-.24,0c-3-.54-3.28-1.08-1.92-3.78.64-1.28,1.81-2.5,1.77-3.85s-1-2.57-1.54-3.85c-1.61-3.7-3.24-7.39-4.84-11.09-.54-1.25-.34-1.69,1-2.14a11.27,11.27,0,0,1,1.62-.4,1.73,1.73,0,0,1,2.14,1.23c1.2,3.09,2.49,6.14,3.76,9.21C225.81,91.74,226,92.2,226.34,93Z" transform="translate(-1.9 -1.58)"/><path class="c" d="M161.8,94.88a9.53,9.53,0,0,1-5.15,3.51c-4.16.94-7.52-1.61-7.58-5.84-.06-3.36,0-6.71,0-10.07,0-1,.37-1.51,1.41-1.45.56,0,1.12,0,1.68,0,1.41,0,1.64.23,1.64,1.69q0,4.26,0,8.51c0,1.08.11,2.13,1.21,2.67a3,3,0,0,0,3.28-.38,7,7,0,0,0,3-5.85c.06-1.76,0-3.52,0-5.27,0-1,.38-1.39,1.35-1.38,3.63,0,3.29-.37,3.3,3.13V96.63c0,1.58-.13,1.69-1.74,1.7-.36,0-.72,0-1.07,0-.93,0-1.3-.46-1.3-1.33C161.79,96.39,161.8,95.77,161.8,94.88Z" transform="translate(-1.9 -1.58)"/><path class="c" d="M227.67,67.47c.51-1.19.9-2.08,1.28-3,.23-.55.49-1,1.2-1s.89.44,1.09.94c.38.91.77,1.82,1.27,3,.31-1.7.6-3.1.82-4.51.14-.88.54-1.24,1.45-1.1s1,.79.86,1.57c-.47,2.27-.94,4.53-1.36,6.81-.13.65-.3,1.15-1.07,1.2s-1.42-.07-1.75-.91c-.41-1-.87-2-1.38-3.22-.51,1.17-1,2.14-1.35,3.14s-1,1-1.83,1-.94-.7-1.06-1.35c-.44-2.31-.86-4.63-1.36-6.93-.19-.89.23-1.18,1-1.28s1.27-.14,1.4.81C227,64.18,227.34,65.65,227.67,67.47Z" transform="translate(-1.9 -1.58)"/><path class="c" d="M169.45,67.36c-.92,0-1.84,0-2.76,0-.75,0-.69.34-.37.79a2,2,0,0,0,1.73.9,9.67,9.67,0,0,0,3.42-.43c.67-.24,1.1,0,1.25.65s.33,1.2-.52,1.47a11.41,11.41,0,0,1-4.94.65c-2.62-.35-4-2.31-3.86-5.28a4.85,4.85,0,0,1,9.68.18c0,.74-.17,1.13-1,1.08S170.33,67.36,169.45,67.36Z" transform="translate(-1.9 -1.58)"/><path class="c" d="M219.15,67.36c-.92,0-1.84,0-2.76,0-.72,0-.74.29-.4.78a2,2,0,0,0,1.72.91,9.44,9.44,0,0,0,3.42-.43c.67-.23,1.1-.05,1.27.63s.3,1.26-.62,1.52a11.51,11.51,0,0,1-4.82.62c-2.62-.34-4-2.3-3.88-5.26a4.85,4.85,0,0,1,9.69.14c0,.84-.28,1.15-1.11,1.1S220,67.36,219.15,67.36Z" transform="translate(-1.9 -1.58)"/><path class="c" d="M130.92,71.2c-1.12,0-2.24,0-3.35,0-.92.05-1.07-.48-1.07-1.2s.22-1.19,1.09-1.22c2.19-.1,2.19-.13,2.19-2.3,0-1.32,0-2.64,0-3.95,0-.74-.21-1-.94-.95-.32,0-.64,0-1,0-.91.07-1.18-.4-1.18-1.24s.31-1.2,1.2-1.18c2.08,0,4.15.06,6.23,0,.87,0,1.14.37,1.15,1.13s-.16,1.29-1.12,1.31c-1.92,0-1.91.08-1.91,2,0,1.4.05,2.8,0,4.19-.05.88.28,1.15,1.09,1,.23,0,.48,0,.71,0,.91-.09,1.41.16,1.42,1.22s-.55,1.23-1.43,1.19C133,71.16,132,71.2,130.92,71.2Z" transform="translate(-1.9 -1.58)"/><path class="c" d="M157,71.44c-2.55,0-3.84-1.26-3.91-3.48,0-.36,0-.72,0-1.08,0-.64.19-1.39-.09-1.88s-1.15-.21-1.76-.28c-.84-.08-.73-.7-.75-1.24s.14-1.08.89-1.17c1.7-.19,1.76-.22,1.69-1.93,0-1,.3-1.43,1.35-1.44s1.17.62,1.16,1.46c0,1.92,0,1.92,1.86,1.92a12,12,0,0,0,1.2,0c.9-.09,1.36.28,1.37,1.2s-.35,1.36-1.31,1.22a2.57,2.57,0,0,0-.83,0c-.75.12-1.92-.44-2.18.32a5.08,5.08,0,0,0,.14,3.41c.18.45.59.57,1.08.59a4.41,4.41,0,0,0,2.06-.53c.72-.33,1.21-.28,1.55.49a1.06,1.06,0,0,1-.63,1.62A9.12,9.12,0,0,1,157,71.44Z" transform="translate(-1.9 -1.58)"/><path class="c" d="M141.15,63.63A5.93,5.93,0,0,1,144,61.69a3.1,3.1,0,0,1,4,2.82c.12,1.95,0,3.91,0,5.87,0,1-.67.82-1.26.82s-1.24.13-1.23-.83c0-1.48,0-3,0-4.44,0-.72,0-1.53-.82-1.84a2,2,0,0,0-2.23.73,4,4,0,0,0-1,2.86c0,.68,0,1.36,0,2,0,1.48-.08,1.5-1.56,1.5-.83,0-1-.38-1-1.1,0-2.24,0-4.48,0-6.72,0-.69-.29-1.54,1-1.59S141.27,62.4,141.15,63.63Z" transform="translate(-1.9 -1.58)"/><path class="c" d="M193,68.16c.85-2.06,1.6-3.8,2.28-5.57a1.21,1.21,0,0,1,1.75-.85c1,.29,1.2.7.76,1.65q-1.61,3.4-3.07,6.89a1.78,1.78,0,0,1-1.85,1.18,1.67,1.67,0,0,1-1.7-1.22c-1-2.32-2-4.62-3-6.92-.25-.58-.55-1.18.33-1.45s1.62-.71,2.1.5C191.29,64.21,192.06,66,193,68.16Z" transform="translate(-1.9 -1.58)"/><path class="c" d="M205.59,71.2c-1.23,0-2.47,0-3.71,0-.85,0-1-.44-1-1.13s.12-1.29,1-1.28H202c2.24-.12,2.24-.12,2.24-2.36a4.33,4.33,0,0,1,0-.72c.2-1.18-.21-1.7-1.46-1.49-.9.16-1.29-.26-1.29-1.21s.39-1.26,1.3-1.19a18,18,0,0,0,2.75,0c1-.08,1.31.37,1.27,1.32-.05,1.6,0,3.2,0,4.79,0,.68.21.95.89.88.39,0,.8,0,1.19,0,.94-.08,1.39.23,1.39,1.26s-.48,1.2-1.34,1.16C207.83,71.16,206.71,71.2,205.59,71.2Z" transform="translate(-1.9 -1.58)"/><path class="c" d="M179.35,64.06a5.59,5.59,0,0,1,3.26-2.38,3.66,3.66,0,0,1,2.22.22c.81.33.62,1,.45,1.64s-.41.94-1.18.81a3.63,3.63,0,0,0-4.48,3.45c-.07.63,0,1.28,0,1.91,0,1.45-.5,1.81-1.92,1.48-.69-.15-.57-.67-.57-1.13,0-2.35,0-4.71,0-7.06,0-.88.28-1.18,1.17-1.19s1.21.37,1.12,1.21A10.2,10.2,0,0,0,179.35,64.06Z" transform="translate(-1.9 -1.58)"/><path class="d" d="M206.81,58.92c.13,1-.15,1.52-1.27,1.5s-1.34-.37-1.31-1.36,0-1.57,1.23-1.56C206.49,57.51,207,57.87,206.81,58.92Z" transform="translate(-1.9 -1.58)"/><path class="a" d="M19.21,77.82c.6-2.62,1.2-5.2,1.8-7.78.32-1.4.62-2.81,1-4.2a2,2,0,0,0-1.13-2.58c-2.65-1.28-3.65-3.44-3.62-6.32.07-8,0-16,.07-24,0-4.31,2.13-6.35,6.45-6.35H60.11c4,0,6.32,2.33,6.33,6.34,0,5.76,0,11.52,0,17.27,0,1.1-.34,1.58-1.41,1.79A16,16,0,0,0,52.65,62.26a2.11,2.11,0,0,1-2.28,1.47c-5.95,0-11.91,0-17.87-.06a3.79,3.79,0,0,0-3.35,1.66c-3,4-6.1,7.9-9.17,11.84C19.79,77.41,19.66,77.74,19.21,77.82Z" transform="translate(-1.9 -1.58)"/><path class="a" d="M116.21,82.79c-2.25-2.9-4.57-5.75-6.72-8.71A4.76,4.76,0,0,0,105.11,72c-2.12.07-4.24,0-6.36,0a3.66,3.66,0,0,1-3-1.25,13.24,13.24,0,0,0-1.19-1.18,1.83,1.83,0,0,0-2.85.09c-1,1-1.95,2-2.89,3-.38.41-.68.51-1,0a1.79,1.79,0,0,0-.31-.36c-2-1.46-2.43-3.44-2.59-5.82a15.21,15.21,0,0,0-5.55-10.65,3.89,3.89,0,0,1-1.62-3.48c.13-2,0-4,0-6a4.72,4.72,0,0,1,4.91-4.92q15.48,0,31,0c3.07,0,4.78,1.86,4.78,5l0,17.4c0,1,0,2.08,0,3.11A4.64,4.64,0,0,1,116,71.49c-1.69,1-1.82,1.4-1.36,3.31q.87,3.6,1.72,7.22a5.19,5.19,0,0,1,.07.7Z" transform="translate(-1.9 -1.58)"/><path class="a" d="M74.23,56.73A13,13,0,0,1,80.65,64a12.9,12.9,0,0,1,.44,1.5,4.72,4.72,0,0,1-1.38,5.25c-3.47,3.18-6.7,6.63-10,10a3,3,0,0,1-3,.81c-5.22-.78-8.91-3.49-10.85-8.45a13,13,0,0,1,5.77-16,4.19,4.19,0,0,1,.53-.16c-.27,2.49.27,4.64,2.34,6.16a6,6,0,0,0,4.15,1.24C72.29,64,74.05,61.68,74.23,56.73Z" transform="translate(-1.9 -1.58)"/><path class="a" d="M124.22,116.56c0,.32-.24.42-.39.58-2.25,2.27-4.53,4.52-6.77,6.81-.47.48-.73.48-1.24,0q-9.39-8.55-18.84-17.06c-1.27-1.16-2.53-2.33-3.84-3.45-.47-.4-.53-.62,0-1.09,3.06-3,6.08-6,9.09-9.05.44-.45.65-.47,1.1,0q10.14,11.28,20.33,22.51Z" transform="translate(-1.9 -1.58)"/><path class="a" d="M82.78,72.85l.89.85c1.89,1.86,1.88,1.86,0,3.72-2.62,2.59-5.24,5.17-7.83,7.78-.49.5-.75.6-1.29,0-2.42-2.6-1.9-2.2,0-4.19,2.46-2.52,5-5,7.45-7.48Z" transform="translate(-1.9 -1.58)"/><path class="a" d="M76.93,89.91c1,6.88,4.94,10.57,11.8,11.54-1.26,1.22-2.34,2.26-3.41,3.31-.33.33-.54.13-.79-.12Q79.17,99.26,73.8,93.89c-.33-.33-.46-.61,0-1C74.75,92,75.73,91.05,76.93,89.91Z" transform="translate(-1.9 -1.58)"/><path class="a" d="M89.73,77.16c1.19-1.17,2.16-2.11,3.11-3.07.38-.38.64-.27,1,.08q5.22,5.27,10.49,10.52c.33.33.47.58.07,1-1,1-1.93,2-3.12,3.23C100.3,82.08,96.63,78.17,89.73,77.16Z" transform="translate(-1.9 -1.58)"/><path class="a" d="M126.94,119.63l.46.42c2.5,2.36,2.5,2.35.06,4.76-1.47,1.46-3,2.9-4.41,4.39-.46.47-.79.68-1.32.07-.67-.77-2.06-1.27-2.08-2.14s1.27-1.51,2-2.24c1.53-1.57,3.1-3.1,4.66-4.65Z" transform="translate(-1.9 -1.58)"/><path class="e" d="M95.21,92.65c-1.28-1.25-2.6-2.49-3.85-3.77-.42-.43.17-.59.39-.8s.56-.43.86,0c.93,1.45,1.88,2.89,2.82,4.33Z" transform="translate(-1.9 -1.58)"/><path class="f" d="M85.56,82.55l4,2.4c-.74,1.08-1.36,1-2.08.1s-1.4-1.52-2.11-2.28Z" transform="translate(-1.9 -1.58)"/><path class="f" d="M83,86.35c.69.59,1.39,1.17,2.07,1.77.21.19.66.29.39.72-.16.27-.37.63-.62.69s-.4-.41-.56-.65c-.52-.78-1-1.59-1.48-2.38Z" transform="translate(-1.9 -1.58)"/><path class="g" d="M82,93.93l-1.33-3.37C82.58,92.16,82.79,92.7,82,93.93Z" transform="translate(-1.9 -1.58)"/><path class="h" d="M97.24,88.3c-.48-.67-.94-1.35-1.45-2-.3-.38-.28-.58.16-.8s.65-.26.79.27c.22.82.48,1.63.73,2.45Z" transform="translate(-1.9 -1.58)"/><path class="i" d="M91.05,81.28c1,0,1.75.7,2.74.85C92.75,83.1,92.29,82.94,91.05,81.28Z" transform="translate(-1.9 -1.58)"/><path class="a" d="M39.72,137.9c-7.48,0-15,0-22.43,0-.92,0-1.26-.11-1-1.15.42-1.71.65-3.45,1-5.18s1.61-2.7,3-3.53A28.82,28.82,0,0,1,31,124.4c9-1.3,18-1.16,26.56,2.66a17.11,17.11,0,0,1,2.71,1.52A5.05,5.05,0,0,1,62.55,132q.45,2.65,1,5.3c.1.51-.07.65-.53.64-.84,0-1.68,0-2.52,0Z" transform="translate(-1.9 -1.58)"/><path class="a" d="M48.57,96.28a7.45,7.45,0,0,1,3.67,2.54c.21.25.27.45,0,.71a2.74,2.74,0,0,0-.64,2.22c0,2.76,0,5.52,0,8.28a3.21,3.21,0,0,1-.78,2.19,14.37,14.37,0,0,1-22.37-.39,2.13,2.13,0,0,1-.4-1.45q0-4.32,0-8.64c0-.57.1-1.21-.26-1.63-.77-.89-.17-1.41.39-2a8.58,8.58,0,0,1,4.72-2.43,18.7,18.7,0,0,1,11.69,1.5c1.51.74,2.76,1.7,2.41,3.68-.08.47.17.65.59.7l1,.09c1.74.17,1.79.09,1.71-1.71A5.69,5.69,0,0,0,48.57,96.28Z" transform="translate(-1.9 -1.58)"/><path class="a" d="M21.72,98.66a1.71,1.71,0,0,0,.57-1.85c0-.14-.15-.37.06-.38,1.1-.08.69-1,.86-1.55s.27-1.41.48-2.09c.28-.9.57-1.73,1.9-1.28.64.21,1.29-.28,1.79-.79C32,86,37.53,84.92,43.77,86.16a15,15,0,0,1,8.51,4.55,2.36,2.36,0,0,0,2.38.81.71.71,0,0,1,1,.5,7.5,7.5,0,0,1,.52,1.46c.19,1.44.84,2.73,1.14,4.13.06.31.26.9-.38.94-.47,0-1,.23-1.38-.39a11.64,11.64,0,0,0-9.74-5.49A72.85,72.85,0,0,0,33,92.83a11.17,11.17,0,0,0-8.56,5.1C23.76,99.05,22.65,98.37,21.72,98.66Z" transform="translate(-1.9 -1.58)"/><path class="a" d="M57,106.55c0,1.36-.05,2.72,0,4.08,0,.85-.42.86-1,.87s-1-.07-1-.89c.05-2.76.06-5.52,0-8.28,0-1,.61-.79,1.18-.84s.92.13.88.86C56.9,103.75,57,105.15,57,106.55Z" transform="translate(-1.9 -1.58)"/><path class="a" d="M22.78,106.48c0-1.39,0-2.79,0-4.18,0-.91.52-.78,1.08-.81s.95.1.94.84c0,2.79-.05,5.58,0,8.37,0,.92-.55.75-1.09.79s-1-.08-.94-.83C22.82,109.27,22.78,107.87,22.78,106.48Z" transform="translate(-1.9 -1.58)"/><path class="j" d="M60.28,106.48c0-.88,0-1.75,0-2.63,0-.44.15-.56.58-.43a2.8,2.8,0,0,1,1.84,2.51c0,1.34.07,2.65-1.4,3.38-.68.34-1.11.48-1-.56C60.33,108,60.28,107.24,60.28,106.48Z" transform="translate(-1.9 -1.58)"/><path class="k" d="M19.38,106.5c0,.79,0,1.59,0,2.39,0,.55-.05.84-.73.54-1.49-.66-1.73-1.87-1.71-3.33a2.76,2.76,0,0,1,1.76-2.59c.56-.29.69-.05.68.48C19.37,104.83,19.38,105.66,19.38,106.5Z" transform="translate(-1.9 -1.58)"/><path class="j" d="M39.89,120.88H37.27c-.33,0-.77.11-.77-.47s.44-.44.77-.39a20.8,20.8,0,0,0,5.23,0c.3,0,.67-.17.72.34s-.33.54-.7.54Z" transform="translate(-1.9 -1.58)"/><path class="a" d="M19.81,99.77c-.15-.88.27-1,1-.91Z" transform="translate(-1.9 -1.58)"/><path class="l" d="M59.87,99.6a1.89,1.89,0,0,1-1-.61C59.74,98.77,59.74,98.77,59.87,99.6Z" transform="translate(-1.9 -1.58)"/><path class="a" d="M133.86,94.24c-2.66,0-2.66,0-2.66-2.67s0-2.61,2.61-2.6a11.57,11.57,0,0,1,3.32.23,2.34,2.34,0,0,1,1.8,2.38,2.3,2.3,0,0,1-1.75,2.4A11.25,11.25,0,0,1,133.86,94.24Z" transform="translate(-1.9 -1.58)"/><path class="m" d="M133.94,80.09a10.54,10.54,0,0,1,2.64.19,2,2,0,0,1,1.66,2,2.07,2.07,0,0,1-1.53,2.29c-1.68.5-3.41.18-5.12.25-.38,0-.46-.25-.46-.56,0-.52,0-1,0-1.56C131.12,80.09,131.12,80.09,133.94,80.09Z" transform="translate(-1.9 -1.58)"/><path class="a" d="M203,85.15a4.54,4.54,0,0,1-.09,9.06c-2.3,0-3.77-1.84-3.74-4.63S200.75,85.12,203,85.15Z" transform="translate(-1.9 -1.58)"/><path class="a" d="M176.16,89.66c0-2.72,1.48-4.5,3.75-4.51a4.54,4.54,0,0,1,.07,9.06C177.66,94.24,176.16,92.44,176.16,89.66Z" transform="translate(-1.9 -1.58)"/><path class="j" d="M166,65.44c.92-1.58,3.09-1.93,4-.82.15.17.35.36.27.62s-.39.19-.6.2C168.56,65.45,167.38,65.44,166,65.44Z" transform="translate(-1.9 -1.58)"/><path class="j" d="M215.81,65.44a2.52,2.52,0,0,1,3.89-.88c.18.19.44.4.32.71s-.41.16-.63.17C218.21,65.45,217,65.44,215.81,65.44Z" transform="translate(-1.9 -1.58)"/><path class="c" d="M41.63,37.84c4.6,0,9.2,0,13.79,0,1.81,0,2.68.58,2.69,1.7s-.9,1.88-2.67,1.88l-27.57,0a4.32,4.32,0,0,1-1.29-.17,1.66,1.66,0,0,1-1.16-1.76A1.45,1.45,0,0,1,26.67,38a7.66,7.66,0,0,1,1.66-.16h13.3Z" transform="translate(-1.9 -1.58)"/><path class="c" d="M41.81,47h7a4.22,4.22,0,0,1,1.41.2,1.63,1.63,0,0,1,1.16,1.75,1.59,1.59,0,0,1-1.23,1.59,6.11,6.11,0,0,1-1.65.2c-4.4,0-8.8,0-13.2,0A9.85,9.85,0,0,1,34,50.6a1.79,1.79,0,0,1-1.73-1.81c0-1.13.82-1.59,1.8-1.73A13.55,13.55,0,0,1,35.93,47h5.88Z" transform="translate(-1.9 -1.58)"/><path class="c" d="M98.15,50.27h11.51a5.2,5.2,0,0,1,1.31.11,1.69,1.69,0,0,1,1.25,1.71,1.53,1.53,0,0,1-1.2,1.59,5.7,5.7,0,0,1-1.42.18H86.47c-1.61,0-2.51-.7-2.47-1.82s.92-1.77,2.53-1.77H98.15Z" transform="translate(-1.9 -1.58)"/><path class="c" d="M98.89,61.76H92.75a7.17,7.17,0,0,1-1.31-.12A1.82,1.82,0,0,1,91.66,58c.52,0,1,0,1.56,0h10.29a7.26,7.26,0,0,1,1.32.07,1.81,1.81,0,0,1,0,3.59A57,57,0,0,1,98.89,61.76Z" transform="translate(-1.9 -1.58)"/></svg>